<svg width="15" height="28" viewBox="0 0 15 28" fill="none" xmlns="http://www.w3.org/2000/svg">
<path d="M1.69336 6.625C2.01237 6.41667 2.42578 6.3125 2.93359 6.3125H13.2852C13.7799 6.3125 14.1055 6.37109 14.2617 6.48828C14.4245 6.60547 14.584 6.72266 14.7402 6.83984C14.8965 6.95703 14.9779 7.23698 14.9844 7.67969C14.9909 8.11589 14.9128 8.38932 14.75 8.5C14.5938 8.61068 14.4342 8.72135 14.2715 8.83203C14.1152 8.94271 13.7865 8.99805 13.2852 8.99805L9.75 9.00781L9.44727 20.1016C9.43424 20.5378 9.35286 20.8177 9.20312 20.9414C9.0599 21.0651 8.91341 21.1888 8.76367 21.3125C8.62044 21.4362 8.30469 21.4948 7.81641 21.4883C7.38021 21.4818 7.10026 21.4102 6.97656 21.2734C6.85286 21.1432 6.72917 21.013 6.60547 20.8828C6.48177 20.7461 6.42643 20.4759 6.43945 20.0723L6.76172 9.01758C5.22526 9.02409 3.92318 9.02734 2.85547 9.02734C2.36068 9.02734 1.96354 8.90039 1.66406 8.64648C1.35807 8.39258 1.20508 8.03776 1.20508 7.58203C1.20508 7.15234 1.36784 6.83333 1.69336 6.625Z" fill="black"/>
<path d="M0 15C0 14.4478 0.561622 14 1.25418 14H7.5H13.7458C14.4384 14 15 14.4478 15 15C15 15.5522 14.4384 16 13.7458 16H1.25418C0.561622 16 0 15.5522 0 15Z" fill="#99DC83"/>
</svg>
