<svg width="34" height="28" viewBox="0 0 34 28" fill="none" xmlns="http://www.w3.org/2000/svg">
<path d="M9.55471 6.80078H13.6094" stroke="#1460F7" stroke-width="2.034" stroke-linecap="round" stroke-linejoin="round"/>
<path d="M1.01712 6.80078L6.80273 6.80078" stroke="black" stroke-width="2.034" stroke-linecap="round" stroke-linejoin="round"/>
<path d="M13.6077 1.01562L2.9375 1.01562" stroke="black" stroke-width="2.034" stroke-linecap="round" stroke-linejoin="round"/>
<path d="M14.0356 12.5859L8.25 12.5859" stroke="black" stroke-width="2.034" stroke-linecap="round" stroke-linejoin="round"/>
<path d="M5.49905 12.5859H1.01758" stroke="black" stroke-width="2.034" stroke-linecap="round" stroke-linejoin="round"/>
<path d="M14.0352 18.3711H1.01758" stroke="black" stroke-width="2.034" stroke-linecap="round" stroke-linejoin="round"/>
<path d="M20.2497 18.3711L30.9199 18.3711" stroke="#1460F7" stroke-width="2.034" stroke-linecap="round" stroke-linejoin="round"/>
<path d="M19.8218 6.80078L25.6074 6.80078" stroke="black" stroke-width="2.034" stroke-linecap="round" stroke-linejoin="round"/>
<path d="M28.3584 6.80078H32.8398" stroke="black" stroke-width="2.034" stroke-linecap="round" stroke-linejoin="round"/>
<path d="M19.8222 1.01562H32.8398" stroke="black" stroke-width="2.034" stroke-linecap="round" stroke-linejoin="round"/>
<path d="M26.8738 12.9492L24.5234 12.9492" stroke="black" stroke-width="2.034" stroke-linecap="round" stroke-linejoin="round"/>
<path d="M22.1697 12.9492L19.8223 12.9492" stroke="black" stroke-width="2.034" stroke-linecap="round" stroke-linejoin="round"/>
<path d="M32.4448 12.9492H29.4258" stroke="black" stroke-width="2.034" stroke-linecap="round" stroke-linejoin="round"/>
<path d="M11.0332 26.4007L9.81978 25.3313C9.65576 25.1867 9.65654 24.9308 9.82146 24.7872L10.9054 23.8438M23.019 26.4007L24.2324 25.3313C24.3964 25.1867 24.3957 24.9308 24.2307 24.7872L23.1468 23.8438M9.8716 25.1094H24.1548" stroke="black" stroke-width="1.2656" stroke-linecap="round"/>
</svg>
