<svg width="15" height="20" viewBox="0 0 15 20" fill="none" xmlns="http://www.w3.org/2000/svg">
<g clip-path="url(#clip0_3501_4044)">
<path d="M0.5628 15.8764H0.5437C0.5095 15.8764 0.4765 15.8712 0.4446 15.8639C0.4413 15.8639 0.4391 15.8647 0.437 15.8647C0.1952 15.8647 0 15.6687 0 15.4277V0.436966C0 0.195963 0.1951 0 0.437 0H12.8894C14.0524 0 14.997 0.945415 14.997 2.10754C14.997 2.12254 14.994 2.13757 14.9929 2.15338C14.994 3.22598 15.0076 15.7391 14.994 17.0355C14.9948 17.0609 14.998 17.0855 14.998 17.1112C14.998 18.2285 14.1239 19.1431 13.0226 19.2124C13.0013 19.2157 12.9789 19.219 12.9566 19.219H0.4725C0.2565 19.219 0.0813999 19.0438 0.0813999 18.8278V18.7368C0.0813999 18.5208 0.2565 18.3456 0.4725 18.3456H0.5641C0.8759 18.2003 1.1147 17.7287 1.1303 17.1697L1.1298 17.1631C1.1289 17.1518 1.1281 17.1407 1.1281 17.129C1.1281 17.1133 1.1285 17.0914 1.129 17.0631L1.1296 17.0295C1.1084 16.4822 0.8696 16.0201 0.5628 15.8764ZM1.3415 17.0244L1.3416 17.0273L1.3409 17.0669C1.3404 17.0935 1.34 17.1142 1.34 17.1289C1.34 17.1347 1.3406 17.1402 1.341 17.1457L1.3424 17.1654L1.3423 17.17C1.3298 17.662 1.1637 18.0884 0.9157 18.3456H12.8905C13.5535 18.3456 14.0963 17.818 14.1228 17.1611C14.1217 17.1496 14.1195 17.1387 14.1195 17.127C14.1195 17.1079 14.1206 17.0781 14.1217 17.0375C14.0835 16.3914 13.5461 15.8764 12.8905 15.8764H0.9137C1.1576 16.1292 1.3236 16.5451 1.3415 17.0244Z" fill="#A56C46"/>
<path d="M1.3418 17.023L1.3419 17.0259L1.3412 17.0654C1.3407 17.0921 1.3403 17.1127 1.3403 17.1275C1.3403 17.1333 1.3409 17.1388 1.3413 17.1443L1.3427 17.164L1.3426 17.1685C1.3301 17.6605 1.164 18.087 0.9159 18.3442H12.8908C13.5537 18.3442 14.0966 17.8166 14.123 17.1597C14.1219 17.1482 14.1198 17.1373 14.1198 17.1256C14.1198 17.1065 14.1208 17.0767 14.1219 17.036C14.0837 16.39 13.5463 15.875 12.8908 15.875H0.9139C1.1579 16.1277 1.3239 16.5437 1.3418 17.023Z" fill="#FFECD6"/>
</g>
<defs>
<clipPath id="clip0_3501_4044">
<rect width="15" height="20" fill="white" transform="matrix(-1 0 0 1 15 0)"/>
</clipPath>
</defs>
</svg>
